#include "music.h"

int noteDuration;

void play(int note, int dur){
  tone(3,note);
  delay(dur * noteDuration);
  noTone(3);
  delay(dur * noteDuration / 3);
}

void nocturne(){
  //Dotted quarter note = 24 
  //Eighth note = 8
  noteDuration = 40;
  play(NOTE_AS4,8);
  play(NOTE_G5,32); //m1
  play(NOTE_F5,8);
  play(NOTE_G5,8);
  play(NOTE_F5,24);
  play(NOTE_DS5,16);
  play(NOTE_AS4,8);
  play(NOTE_G5,16); //m2
  play(NOTE_C5,2);
  play(NOTE_CS5,2);
  play(NOTE_C5,2);
  play(NOTE_B4,2);
  play(NOTE_C5,2);
  play(NOTE_C6,16);
  play(NOTE_G5,8);
  play(NOTE_AS5,24);
  play(NOTE_GS5,16);
  play(NOTE_G5,8);
  play(NOTE_F5,24); //m3
  play(NOTE_G5,16);
  play(NOTE_D5,8);
  play(NOTE_DS5,24);
  play(NOTE_C5,24);
  play(NOTE_AS4,10); //m4
  play(NOTE_D6,10);
  play(NOTE_C6,10);
  play(NOTE_AS5,4);
  play(NOTE_GS5,4);
  play(NOTE_G5,4);
  play(NOTE_GS5,4);
  play(NOTE_C5,4);
  play(NOTE_D5,4);
  play(NOTE_DS5,24);
  delay(noteDuration*16);
  play(NOTE_AS4,8);
  play(NOTE_G5,24); //m5
  play(NOTE_F5,4);
  play(NOTE_G5,4);
  play(NOTE_F5,2);
  play(NOTE_G5,2);
  play(NOTE_F5,2);
  play(NOTE_E5,4);
  play(NOTE_F5,4);
  play(NOTE_G5,4);
  play(NOTE_F5,8);
  play(NOTE_DS5,20);
  play(NOTE_F5,4);
  play(NOTE_DS5,2);
  play(NOTE_F5,2);
  play(NOTE_DS5,2);
  play(NOTE_D5,4);
  play(NOTE_DS5,4);
  play(NOTE_F5,4);
  play(NOTE_G5,5); //m6
  play(NOTE_B4,3);
  play(NOTE_C5,3);
  play(NOTE_CS5,3);
  play(NOTE_C5,3);
  play(NOTE_F5,3);
  play(NOTE_E5,3);
  play(NOTE_GS5,3);
  play(NOTE_G5,3);
  play(NOTE_CS6,3);
  play(NOTE_C6,3);
  play(NOTE_G5,3);
  play(NOTE_AS5,24);
  play(NOTE_GS5,16);
  play(NOTE_G5,8);
  play(NOTE_F5,3); //m7
  play(NOTE_G5,2);
  play(NOTE_F5,2);
  play(NOTE_G5,2);
  play(NOTE_F5,2);
  play(NOTE_G5,1);
  play(NOTE_F5,1);
  play(NOTE_G5,1);
  play(NOTE_F5,1);
  play(NOTE_G5,1);
  play(NOTE_F5,1);
  play(NOTE_G5,1);
  play(NOTE_F5,1);
  play(NOTE_G5,1);
  play(NOTE_F5,1);
  play(NOTE_G5,1);
  play(NOTE_F5,1);
  play(NOTE_G5,2);
  play(NOTE_F5,2);
  play(NOTE_E5,2);
  play(NOTE_F5,2);
  play(NOTE_G5,8);
  play(NOTE_G5,8);
  play(NOTE_D5,8);
  play(NOTE_DS5,24);
  play(NOTE_C5,24);
  play(NOTE_AS4,10); //m8
  play(NOTE_D6,10);
  play(NOTE_C6,10);
  play(NOTE_AS5,4);
  play(NOTE_GS5,4);
  play(NOTE_G5,4);
  play(NOTE_GS5,4);
  play(NOTE_GS5,1);
  play(NOTE_C5,4);
  play(NOTE_D5,4);
  play(NOTE_DS5,32);
  play(NOTE_D5,8);
  play(NOTE_DS5,8);
  play(NOTE_F5,24); //m9
  play(NOTE_G5,16);
  play(NOTE_F5,8);
  play(NOTE_F5,24);
  play(NOTE_C5,24);
  play(NOTE_DS5,8); //m10
  play(NOTE_DS5,8);
  play(NOTE_DS5,8);
  play(NOTE_DS5,8);
  play(NOTE_D5,4);
  play(NOTE_DS5,4);
  play(NOTE_F5,6);
  play(NOTE_DS5,2);
  play(NOTE_DS5,24);
  play(NOTE_AS4,24);
  play(NOTE_AS5,24); //m11
  play(NOTE_A5,16);
  play(NOTE_G5,8);
  play(NOTE_F5,24);
  play(NOTE_D5,24);
  play(NOTE_DS5,24); //m12
  play(NOTE_D5,8);
  play(NOTE_C5,8);
  play(NOTE_D5,8);
  play(NOTE_AS4,8);
  play(NOTE_B4,8);
  play(NOTE_B4,8);
  play(NOTE_C5,8);
  play(NOTE_C5,8);
  play(NOTE_D5,16);
  play(NOTE_G4,3); //m13
  play(NOTE_AS4,3);
  play(NOTE_DS5,3);
  play(NOTE_G5,16);
  play(NOTE_A4,3);
  play(NOTE_AS4,3);
  play(NOTE_B4,3);
  play(NOTE_AS4,3);
  play(NOTE_CS5,3);
  play(NOTE_D5,3);
  play(NOTE_G5,6);
  play(NOTE_F5,2);
  play(NOTE_F5,16);
  play(NOTE_DS5,14);
  play(NOTE_F5,4);
  play(NOTE_DS5,2);
  play(NOTE_F5,2);
  play(NOTE_DS5,2);
  play(NOTE_D5,4);
  play(NOTE_DS5,4);
  play(NOTE_F5,4);
  play(NOTE_G5,5); //m14
  play(NOTE_B4,3);
  play(NOTE_C5,3);
  play(NOTE_CS5,3);
  play(NOTE_C5,3);
  play(NOTE_F5,3);
  play(NOTE_E5,3);
  play(NOTE_GS5,3);
  play(NOTE_G5,3);
  play(NOTE_CS6,3);
  play(NOTE_C6,3);
  play(NOTE_G5,3);
  play(NOTE_AS5,24);
  play(NOTE_GS5,16);
  play(NOTE_G5,8);
  play(NOTE_F5,3); //m15
  play(NOTE_G5,2);
  play(NOTE_F5,2);
  play(NOTE_G5,2);
  play(NOTE_F5,2);
  play(NOTE_G5,1);
  play(NOTE_F5,1);
  play(NOTE_G5,1);
  play(NOTE_F5,1);
  play(NOTE_G5,1);
  play(NOTE_F5,1);
  play(NOTE_G5,1);
  play(NOTE_F5,1);
  play(NOTE_G5,1);
  play(NOTE_F5,1);
  play(NOTE_G5,1);
  play(NOTE_F5,1);
  play(NOTE_G5,2);
  play(NOTE_F5,2);
  play(NOTE_E5,2);
  play(NOTE_F5,2);
  play(NOTE_G5,8);
  play(NOTE_G5,8);
  play(NOTE_D5,8);
  play(NOTE_DS5,24);
  play(NOTE_C5,24);
  play(NOTE_AS4,9); //m16
  play(NOTE_D6,9);
  play(NOTE_CS6,9);
  play(NOTE_C6,6);
  play(NOTE_B5,3);
  play(NOTE_AS5,3);
  play(NOTE_A5,3);
  play(NOTE_GS5,3);
  play(NOTE_F5,3);
  play(NOTE_D5,3);
  play(NOTE_B4,3);
  play(NOTE_AS4,3);
  play(NOTE_D5,3);
  play(NOTE_G5,2);
  play(NOTE_F5,2);
  play(NOTE_DS5,2);
  play(NOTE_DS5,24);
  delay(noteDuration*8);
  play(NOTE_D5,8);
  play(NOTE_DS5,8);
  play(NOTE_F5,24); //m17
  play(NOTE_G5,16);
  play(NOTE_F5,8);
  play(NOTE_F5,24);
  play(NOTE_C5,24);
  play(NOTE_DS5,5); //m18
  play(NOTE_DS5,5);
  play(NOTE_DS5,5);
  play(NOTE_DS5,5);
  play(NOTE_DS5,8);
  play(NOTE_D5,4);
  play(NOTE_DS5,4);
  play(NOTE_F5,6);
  play(NOTE_DS5,2);
  play(NOTE_DS5,24);
  play(NOTE_AS4,24);
  play(NOTE_AS5,24); //m19
  play(NOTE_A5,16);
  play(NOTE_G5,8);
  play(NOTE_F5,24);
  play(NOTE_D5,24);
  play(NOTE_DS5,24); //m20
  play(NOTE_D5,8);
  play(NOTE_C5,8);
  play(NOTE_D5,8);
  play(NOTE_AS4,8);
  play(NOTE_B4,8);
  play(NOTE_B4,8);
  play(NOTE_C5,8);
  play(NOTE_C5,8);
  play(NOTE_D5,16);
  play(NOTE_G4,3); //m21
  play(NOTE_AS4,3);
  play(NOTE_DS5,3);
  play(NOTE_G5,16);
  play(NOTE_A4,3);
  play(NOTE_AS4,3);
  play(NOTE_B4,3);
  play(NOTE_AS4,3);
  play(NOTE_CS5,3);
  play(NOTE_D5,3);
  play(NOTE_G5,6);
  play(NOTE_F5,2);
  play(NOTE_F5,16);
  play(NOTE_DS5,14);
  play(NOTE_F5,4);
  play(NOTE_DS5,2);
  play(NOTE_F5,2);
  play(NOTE_DS5,2);
  play(NOTE_D5,4);
  play(NOTE_DS5,4);
  play(NOTE_F5,4);
  play(NOTE_G5,5); //m22
  play(NOTE_B4,3);
  play(NOTE_C5,3);
  play(NOTE_CS5,3);
  play(NOTE_C5,3);
  play(NOTE_F5,3);
  play(NOTE_E5,3);
  play(NOTE_GS5,3);
  play(NOTE_G5,3);
  play(NOTE_CS6,3);
  play(NOTE_C6,3);
  play(NOTE_G5,3);
  play(NOTE_AS5,24);
  play(NOTE_GS5,16);
  play(NOTE_G5,8);
  play(NOTE_F5,3); //m23
  play(NOTE_G5,2);
  play(NOTE_F5,2);
  play(NOTE_G5,2);
  play(NOTE_F5,2);
  play(NOTE_G5,1);
  play(NOTE_F5,1);
  play(NOTE_G5,1);
  play(NOTE_F5,1);
  play(NOTE_G5,1);
  play(NOTE_F5,1);
  play(NOTE_G5,1);
  play(NOTE_F5,1);
  play(NOTE_G5,1);
  play(NOTE_F5,1);
  play(NOTE_G5,1);
  play(NOTE_F5,1);
  play(NOTE_G5,2);
  play(NOTE_F5,2);
  play(NOTE_E5,2);
  play(NOTE_F5,2);
  play(NOTE_G5,8);
  play(NOTE_G5,8);
  play(NOTE_D5,8);
  play(NOTE_DS5,24);
  play(NOTE_C5,24);
  play(NOTE_AS4,6); //m24
  play(NOTE_D6,12);
  play(NOTE_CS6,6);
  play(NOTE_C6,12);
  play(NOTE_B5,5);
  play(NOTE_AS5,5);
  play(NOTE_A5,5);
  play(NOTE_GS5,3);
  play(NOTE_A4,3);
  play(NOTE_AS4,3);
  play(NOTE_B4,3);
  play(NOTE_C5,3);
  play(NOTE_CS5,3);
  play(NOTE_D5,3);
  play(NOTE_G5,2);
  play(NOTE_F5,2);
  play(NOTE_DS5,2);
  play(NOTE_DS5,24);
  delay(noteDuration*24);
  play(NOTE_DS5,24); //m25
  play(NOTE_F5,8);
  play(NOTE_DS5,8);
  play(NOTE_F5,8);
  play(NOTE_G5,36);
  delay(noteDuration*12);
  play(NOTE_DS5,28); //m26
  play(NOTE_F5,4);
  play(NOTE_DS5,4);
  play(NOTE_F5,4);
  play(NOTE_DS5,4);
  play(NOTE_F5,4);
  play(NOTE_G5,24);
  play(NOTE_DS5,3);
  play(NOTE_F5,3);
  play(NOTE_DS5,3);
  play(NOTE_D5,3);
  play(NOTE_DS5,3);
  play(NOTE_DS6,8);
  play(NOTE_D6,8);
  play(NOTE_C6,8);
  play(NOTE_AS5,16); //m27
  play(NOTE_A5,8);
  play(NOTE_GS5,8);
  play(NOTE_C5,8);
  play(NOTE_D5,8);
  play(NOTE_DS5,8);
  play(NOTE_F5,4);
  play(NOTE_DS5,2);
  play(NOTE_F5,2);
  play(NOTE_DS5,2);
  play(NOTE_D5,4);
  play(NOTE_DS5,4);
  play(NOTE_DS5,2);
  play(NOTE_G6,24);
  play(NOTE_F6,8);
  play(NOTE_DS6,8);
  play(NOTE_D6,7);
  play(NOTE_C6,7);
  play(NOTE_B5,10); //m28
  play(NOTE_AS5,10);
  play(NOTE_A5,10);
  play(NOTE_A5,6);
  play(NOTE_GS5,6);
  play(NOTE_GS5,6);
  play(NOTE_G5,6);
  play(NOTE_G5,12);
  play(NOTE_F5,4);
  play(NOTE_DS5,36);
  delay(noteDuration*12);
  play(NOTE_DS5,28); //m29
  play(NOTE_F5,4);
  play(NOTE_DS5,4);
  play(NOTE_F5,4);
  play(NOTE_DS5,4);
  play(NOTE_F5,4);
  play(NOTE_DS5,4);
  play(NOTE_F5,4);
  play(NOTE_G5,24);
  delay(noteDuration*24);
  play(NOTE_DS5,12); //m30
  play(NOTE_GS4,4);
  play(NOTE_AS4,4);
  play(NOTE_GS4,2);
  play(NOTE_AS4,2);
  play(NOTE_GS4,2);
  play(NOTE_G4,4);
  play(NOTE_GS4,4);
  play(NOTE_B4,4);
  play(NOTE_DS5,4);
  play(NOTE_GS5,4);
  play(NOTE_DS6,12);
  play(NOTE_F6,3);
  play(NOTE_G6,8);
  play(NOTE_DS6,8);
  play(NOTE_DS7,16);
  play(NOTE_D7,8);
  play(NOTE_C7,8);
  play(NOTE_B6,8); //m31
  play(NOTE_AS6,8);
  play(NOTE_A6,8);
  play(NOTE_GS6,8);
  play(NOTE_G6,8);
  play(NOTE_D6,8);
  play(NOTE_DS6,8);
  play(NOTE_DS7,24);
  delay(noteDuration*8);
  play(NOTE_F6,12);
  play(NOTE_C7,12);
  play(NOTE_B6,8); //m32
  play(NOTE_AS2,8);
  play(NOTE_F3,8);
  play(NOTE_GS3,8);
  play(NOTE_D4,8);
  play(NOTE_AS3,8);
  play(NOTE_F4,8);
  play(NOTE_GS4,8);
  play(NOTE_AS4,24);
  delay(noteDuration*8);
  play(NOTE_B6,4);
  play(NOTE_AS6,4);
  play(NOTE_C7,4);
  play(NOTE_A6,4);
  play(NOTE_B6,4);
  play(NOTE_AS6,4);
  play(NOTE_C7,4);
  play(NOTE_A6,4);
  play(NOTE_B6,3);
  play(NOTE_AS6,3);
  play(NOTE_C7,3);
  play(NOTE_A6,3);
  play(NOTE_B6,3);
  play(NOTE_AS6,3);
  play(NOTE_C7,2);
  play(NOTE_A6,2);
  play(NOTE_B6,2);
  play(NOTE_AS6,2);
  play(NOTE_C7,1);
  play(NOTE_A6,1);
  play(NOTE_B6,1);
  play(NOTE_AS6,1);
  play(NOTE_C7,1);
  play(NOTE_A6,1);
  play(NOTE_B6,1);
  play(NOTE_AS6,1);
  play(NOTE_C7,1);
  play(NOTE_A6,1);
  play(NOTE_B6,1);
  play(NOTE_AS6,1);
  play(NOTE_C7,1);
  play(NOTE_A6,1);
  play(NOTE_B6,1); //m33
  play(NOTE_AS6,1);
  play(NOTE_C7,1);
  play(NOTE_A6,1);
  play(NOTE_B6,1);
  play(NOTE_AS6,1);
  play(NOTE_C7,1);
  play(NOTE_A6,1);
  play(NOTE_B6,1);
  play(NOTE_AS6,1);
  play(NOTE_C7,1);
  play(NOTE_A6,1);
  play(NOTE_B6,1);
  play(NOTE_AS6,1);
  play(NOTE_C7,2);
  play(NOTE_A6,3);
  play(NOTE_B6,4);
  play(NOTE_AS6,4);
  play(NOTE_D7,5);
  play(NOTE_C7,5);
  play(NOTE_AS6,6);
  play(NOTE_A6,6);
  play(NOTE_GS6,7);
  play(NOTE_G6,7);
  play(NOTE_F6,8);
  play(NOTE_D6,8);
  play(NOTE_DS6,9);
  play(NOTE_C6,9);
  play(NOTE_AS5,10);
  play(NOTE_GS5,10);
  play(NOTE_C5,24);
  play(NOTE_D5,24);
  delay(noteDuration*8);
  play(NOTE_DS5,8); //m33
  play(NOTE_AS4,8);
  play(NOTE_G5,8);
  play(NOTE_DS5,8);
  play(NOTE_AS4,8);
  play(NOTE_G5,8);
  play(NOTE_DS5,9);
  play(NOTE_AS4,9);
  play(NOTE_G5,9);
  play(NOTE_DS5,10);
  play(NOTE_AS4,10);
  play(NOTE_G5,10);
  play(NOTE_DS5,24); //m34
  play(NOTE_DS6,36);
  play(NOTE_DS4,48);
  //fin
}

void keyboardCat(){
    noteDuration = 32;
    //Quarter note = 16
    play(NOTE_C4,8);
    play(NOTE_E4,8);
    play(NOTE_G4,8);
    play(NOTE_E4,8);
    play(NOTE_C4,9);
    play(NOTE_E4,4);
    play(NOTE_G4,9);
    play(NOTE_E4,8);
    play(NOTE_A3,8);
    play(NOTE_C4,8);
    play(NOTE_E4,8);
    play(NOTE_C4,8);
    play(NOTE_A3,9);
    play(NOTE_C4,4);
    play(NOTE_E4,9);
    play(NOTE_C4,8);
    play(NOTE_G3,8);
    play(NOTE_B3,8);
    play(NOTE_D4,8);
    play(NOTE_B3,8);
    play(NOTE_G3,9);
    play(NOTE_B3,4);
    play(NOTE_D4,9);
    play(NOTE_B3,8);
    play(NOTE_G3,8);
    play(NOTE_G3,4);
    play(NOTE_G3,8);
    play(NOTE_G3,4);
    play(NOTE_G3,8);
    play(NOTE_G3,3);
    play(NOTE_G3,3);
    play(NOTE_G3,3);
    play(NOTE_G3,8);
    play(NOTE_G3,8);
    play(NOTE_G3,5);
    play(NOTE_C4,8);
    play(NOTE_E4,8);
    play(NOTE_G4,8);
    play(NOTE_E4,8);
    play(NOTE_C4,9);
    play(NOTE_E4,4);
    play(NOTE_G4,9);
    play(NOTE_E4,8);
    play(NOTE_B3,8);
    play(NOTE_D4,8);
    play(NOTE_F4,8);
    play(NOTE_D4,8);
    play(NOTE_B3,9);
    play(NOTE_D4,4);
    play(NOTE_F4,9);
    play(NOTE_D4,8);
    play(NOTE_A3,8);
    play(NOTE_C4,8);
    play(NOTE_E4,8);
    play(NOTE_C4,8);
    play(NOTE_A3,9);
    play(NOTE_C4,4);
    play(NOTE_E4,9);
    play(NOTE_C4,8);
    play(NOTE_G3,40);
    delay(noteDuration*4);
    play(NOTE_G3,4);
    //fin
}

void aThousandMiles(){
    //Quarter note =  16;
    noteDuration = 30;  
    play(NOTE_B4,4);
    play(NOTE_B5,4); //m1
    play(NOTE_B4,4);
    play(NOTE_B5,4);
    play(NOTE_AS5,4);
    play(NOTE_B4,4);
    play(NOTE_AS5,4);
    play(NOTE_FS5,24);
    play(NOTE_DS5,8);
    play(NOTE_CS5,4);
    play(NOTE_B4,4);
    play(NOTE_B5,4); //m2
    play(NOTE_B4,4);
    play(NOTE_B5,4);
    play(NOTE_AS5,4);
    play(NOTE_B4,4);
    play(NOTE_AS5,4);
    play(NOTE_FS5,4);
    play(NOTE_B4,4);
    play(NOTE_FS5,4);
    play(NOTE_B4,4);
    play(NOTE_FS5,4);
    play(NOTE_B4,4);
    play(NOTE_DS5,4);
    play(NOTE_E5,4);
    play(NOTE_DS5,4);
    play(NOTE_CS5,4);
    play(NOTE_B5,4); //m3
    play(NOTE_B4,4);
    play(NOTE_B5,4);
    play(NOTE_AS5,4);
    play(NOTE_B4,4);
    play(NOTE_AS5,4);
    play(NOTE_FS5,24);
    play(NOTE_DS5,8);
    play(NOTE_CS5,4);
    play(NOTE_B4,4);
    play(NOTE_DS5,4); //m4
    play(NOTE_CS5,4);
    play(NOTE_B4,4);
    play(NOTE_DS5,4);
    play(NOTE_CS5,4);
    play(NOTE_B4,4);
    play(NOTE_FS5,16);
    play(NOTE_CS5,24);
    delay(noteDuration*16);
    play(NOTE_FS5,4); //m5
    play(NOTE_FS5,4);
    play(NOTE_FS5,4);
    play(NOTE_FS5,4);
    delay(noteDuration*4);
    play(NOTE_CS5,8);
    play(NOTE_CS5,4);
    delay(noteDuration*12);
    play(NOTE_DS5,8);
    play(NOTE_CS5,8);
    play(NOTE_CS5,4);
    delay(noteDuration*12); //m6
    play(NOTE_DS5,8);
    play(NOTE_CS5,8);
    play(NOTE_CS5,8);
    play(NOTE_CS5,4);
    play(NOTE_B4,4);
    play(NOTE_DS5,4);
    play(NOTE_B4,4);
    delay(noteDuration*4);
    play(NOTE_B4,4);
    play(NOTE_B5,4); //m7
    play(NOTE_B4,4);
    play(NOTE_B5,4);
    play(NOTE_AS5,4);
    play(NOTE_B4,4);
    play(NOTE_AS5,4);
    play(NOTE_FS5,4);
    play(NOTE_B4,4);
    play(NOTE_FS5,4);
    play(NOTE_B4,4);
    play(NOTE_FS5,4);
    play(NOTE_B4,4);
    play(NOTE_DS5,8);
    play(NOTE_CS5,4);
    play(NOTE_B4,4);
    play(NOTE_B5,4); //m8
    play(NOTE_B4,4);
    play(NOTE_B5,4);
    play(NOTE_AS5,4);
    play(NOTE_B4,4);
    play(NOTE_AS5,4);
    play(NOTE_FS5,4);
    play(NOTE_B4,4);
    play(NOTE_FS5,4);
    play(NOTE_B4,4);
    play(NOTE_FS5,4);
    play(NOTE_B4,4);
    play(NOTE_DS5,4);
    play(NOTE_E5,4);
    play(NOTE_DS5,4);
    play(NOTE_CS5,4);
    play(NOTE_FS5,4); //m9
    play(NOTE_FS5,8);
    play(NOTE_FS5,4);
    delay(noteDuration*4);
    play(NOTE_DS5,8);
    play(NOTE_DS5,4);
    delay(noteDuration*12);
    play(NOTE_DS5,8);
    play(NOTE_CS5,8);
    play(NOTE_CS5,4);
    delay(noteDuration*12); //m10
    play(NOTE_DS5,8);
    play(NOTE_CS5,8);
    play(NOTE_CS5,4);
    delay(noteDuration*12);
    play(NOTE_CS5,8);
    play(NOTE_CS5,8);
    play(NOTE_B4,4);
    play(NOTE_B5,4); //m11
    play(NOTE_B4,4);
    play(NOTE_B5,4);
    play(NOTE_AS5,4);
    play(NOTE_B4,4);
    play(NOTE_AS5,4);
    play(NOTE_FS5,4);
    play(NOTE_B4,4);
    play(NOTE_FS5,4);
    play(NOTE_B4,4);
    play(NOTE_FS5,4);
    play(NOTE_B4,4);
    play(NOTE_DS5,8);
    play(NOTE_CS5,4);
    play(NOTE_B4,4);
    play(NOTE_B5,4); //m12
    play(NOTE_B4,4);
    play(NOTE_B5,4);
    play(NOTE_AS5,4);
    play(NOTE_B4,4);
    play(NOTE_AS5,4);
    play(NOTE_FS5,4);
    play(NOTE_B4,4);
    play(NOTE_FS5,4);
    play(NOTE_B4,4);
    play(NOTE_FS5,4);
    play(NOTE_B4,4);
    play(NOTE_DS5,4);
    play(NOTE_E5,4);
    play(NOTE_DS5,4);
    play(NOTE_CS5,4); 
    play(NOTE_B3,4); //m13
    play(NOTE_B3,4);
    play(NOTE_B3,4);
    play(NOTE_DS4,4);
    play(NOTE_DS4,4);
    play(NOTE_DS4,4);
    play(NOTE_CS4,4);
    delay(noteDuration*8);
    play(NOTE_B4,4);
    play(NOTE_B4,8);
    play(NOTE_DS5,8);
    play(NOTE_CS5,8);
    play(NOTE_B3,4); //m14
    play(NOTE_B3,4);
    play(NOTE_B3,4);
    play(NOTE_DS4,4);
    play(NOTE_DS4,4);
    play(NOTE_DS4,4);
    play(NOTE_CS4,4);
    delay(noteDuration*8);
    play(NOTE_B4,4);
    play(NOTE_B4,8);
    play(NOTE_FS5,8);
    play(NOTE_CS5,8);
    play(NOTE_B3,4); //m15
    play(NOTE_B3,4);
    play(NOTE_B3,4);
    play(NOTE_DS4,4);
    play(NOTE_DS4,4);
    play(NOTE_DS4,4);
    play(NOTE_CS4,4);
    delay(noteDuration*12);
    play(NOTE_B4,8);
    play(NOTE_DS5,8);
    play(NOTE_CS5,8);
    play(NOTE_B4,32); //m16
    play(NOTE_AS4,24);
    play(NOTE_AS4,8);
    play(NOTE_AS4,12); //m17
    play(NOTE_B4,12);
    play(NOTE_FS5,32);
    play(NOTE_AS4,8);
    play(NOTE_AS4,12); //m18
    play(NOTE_B4,12);
    play(NOTE_GS4,32);
    play(NOTE_AS4,8);
    play(NOTE_AS4,12); //m19
    play(NOTE_B4,12);
    play(NOTE_FS5,32);
    play(NOTE_AS4,8);
    play(NOTE_AS4,12); //m20
    play(NOTE_B4,12);
    play(NOTE_GS4,16);
    delay(noteDuration*16);
    play(NOTE_AS4,8);
    play(NOTE_AS4,12); //m21
    play(NOTE_B4,12);
    play(NOTE_FS5,16);
    play(NOTE_E5,16);
    play(NOTE_DS5,8);
    play(NOTE_E5,12); //m22
    play(NOTE_DS5,12);
    play(NOTE_CS5,16);
    play(NOTE_CS5,8);
    play(NOTE_B4,8);
    play(NOTE_AS4,8);
    play(NOTE_B4,24); //m23
    play(NOTE_DS5,16);
    play(NOTE_CS5,32);
    delay(noteDuration*40);
    play(NOTE_AS4,4);
    play(NOTE_B4,4);
    play(NOTE_B5,4); //m24
    play(NOTE_B4,4);
    play(NOTE_B5,4);
    play(NOTE_AS5,4);
    play(NOTE_B4,4);
    play(NOTE_AS5,4);
    play(NOTE_FS5,24);
    play(NOTE_DS5,8);
    play(NOTE_CS5,4);
    play(NOTE_B4,4);
    play(NOTE_B5,4); //m25
    play(NOTE_B4,4);
    play(NOTE_B5,4);
    play(NOTE_AS5,4);
    play(NOTE_B4,4);
    play(NOTE_AS5,4);
    play(NOTE_FS5,4);
    play(NOTE_B4,4);
    play(NOTE_FS5,4);
    play(NOTE_B4,4);
    play(NOTE_FS5,4);
    play(NOTE_B4,4);
    play(NOTE_DS5,4);
    play(NOTE_E5,4);
    play(NOTE_DS5,4);
    play(NOTE_CS5,4);
    play(NOTE_B5,4); //m26
    play(NOTE_B4,4);
    play(NOTE_B5,4);
    play(NOTE_AS5,4);
    play(NOTE_B4,4);
    play(NOTE_AS5,4);
    play(NOTE_FS5,24);
    play(NOTE_DS5,8);
    play(NOTE_CS5,4);
    play(NOTE_B4,4);
    play(NOTE_DS5,4); //m27
    play(NOTE_CS5,4);
    play(NOTE_B4,4);
    play(NOTE_DS5,4);
    play(NOTE_CS5,4);
    play(NOTE_B4,4);
    play(NOTE_FS5,16);
    play(NOTE_CS5,24);
}
